<svg width="115" height="57" viewBox="0 0 115 57" fill="none" xmlns="http://www.w3.org/2000/svg">
<g clip-path="url(#clip0_14_127)">
<path d="M0 28.4849H14.7967V34.5097H6.6031V39.0884H14.4593V45.1132H6.6513V55.3793H0V28.4849Z" fill="black"/>
<path d="M17.5439 35.1844H23.2795V37.3051H23.3759C23.9061 36.3411 24.9664 34.4614 28.4848 34.4614V40.5343C25.6412 40.6307 23.6651 41.2091 23.6651 44.2456V55.3311H17.5439V35.1844Z" fill="black"/>
<path d="M49.5957 49.0654C48.5835 51.3307 47.1858 53.0658 45.4507 54.2226C43.7637 55.4275 41.7394 56.0541 39.6669 56.0541C33.835 56.0541 28.8706 51.3789 28.8706 45.3542C28.8706 39.715 33.353 34.5096 39.5223 34.5096C45.7398 34.5096 50.2704 39.3776 50.2704 45.4987C50.2704 46.3181 50.174 46.6073 50.1258 47.0893H34.8953C35.2809 49.4992 37.257 50.8969 39.6669 50.8969C41.5466 50.8969 42.5106 50.0775 43.3781 49.0172H49.5957V49.0654ZM44.1975 43.0407C43.9565 41.8357 42.7516 39.5704 39.5705 39.5704C36.3895 39.5704 35.2327 41.8357 34.9435 43.0407H44.1975Z" fill="black"/>
<path d="M82.9004 49.1136C81.8882 51.3789 80.4905 53.114 78.7553 54.2708C77.0684 55.4757 75.0441 56.1023 72.9716 56.1023C67.1397 56.1023 62.1753 51.4271 62.1753 45.4024C62.1753 39.7632 66.6577 34.5579 72.827 34.5579C78.9963 34.5579 83.5751 39.4258 83.5751 45.547C83.5751 46.3663 83.4787 46.6555 83.4305 47.1375H68.2C68.5856 49.5474 70.5617 50.9451 72.9716 50.9451C74.8513 50.9451 75.8153 50.1258 76.6828 49.0654H82.9004V49.1136ZM77.5022 43.0889C77.2612 41.8839 76.0563 39.6186 72.8752 39.6186C69.7423 39.6186 68.5374 41.8839 68.2482 43.0889H77.5022Z" fill="black"/>
<path d="M60.8255 51.1379C58.7048 51.1379 58.3193 50.3185 58.3193 48.246V39.7632H61.5485V35.1844H58.3193V28.4849H52.2463V35.1844V39.7632V48.1014C52.2463 53.4032 53.6923 55.7167 60.199 55.7167H61.3075V51.1379H60.8255Z" fill="black"/>
<path d="M110.18 28.726C116.301 22.6048 116.157 12.5315 109.698 6.60316C103.818 1.20501 94.5158 1.3014 88.7321 6.79596C83.2857 11.9531 82.5146 20.0986 86.3704 26.1233C86.515 26.3643 86.5632 26.6535 86.4186 26.9426L84.0087 31.9552C83.6231 32.7746 84.4907 33.6903 85.31 33.2566L90.2744 30.8467C90.5154 30.7021 90.8528 30.7503 91.0938 30.8949C97.0703 34.6061 105.023 33.9313 110.18 28.726Z" fill="black"/>
<path d="M101.987 21.0625V25.2557C101.987 26.2196 101.167 27.039 100.203 27.039H98.4681C97.5041 27.039 96.6848 26.2196 96.6848 25.2557V21.0625C96.6848 20.6769 96.3956 20.3877 96.01 20.3877H91.5758C90.6118 20.3877 89.7925 19.5683 89.7925 18.6044V17.1584C89.7925 16.1945 90.6118 15.3751 91.5758 15.3751H95.9618C96.3474 15.3751 96.6366 15.0859 96.6366 14.7003V10.5071C96.6366 9.54318 97.4559 8.72382 98.4199 8.72382H100.155C101.119 8.72382 101.938 9.54318 101.938 10.5071V14.7003C101.938 15.0859 102.228 15.3751 102.613 15.3751H107.047C108.011 15.3751 108.831 16.1945 108.831 17.1584V18.6044C108.831 19.5683 108.011 20.3877 107.047 20.3877H102.661C102.324 20.3877 101.987 20.6769 101.987 21.0625Z" fill="white"/>
</g>
<defs>
<clipPath id="clip0_14_127">
<rect width="115" height="56.0541" fill="white"/>
</clipPath>
</defs>
</svg>
